<?xml version="1.0" encoding="utf-8"?>
<!-- Generator: Adobe Illustrator 15.0.0, SVG Export Plug-In . SVG Version: 6.00 Build 0)  -->
<!DOCTYPE svg PUBLIC "-//W3C//DTD SVG 1.1//EN" "http://www.w3.org/Graphics/SVG/1.1/DTD/svg11.dtd">
<svg version="1.1" id="Layer_3" xmlns="http://www.w3.org/2000/svg" xmlns:xlink="http://www.w3.org/1999/xlink" x="0px" y="0px"
	 width="311.039px" height="93.073px" viewBox="0 0 311.039 93.073" enable-background="new 0 0 311.039 93.073"
	 xml:space="preserve">
<g>
	<rect x="4.978" y="28.348" fill="#F58020" width="50.216" height="18.838"/>
	<path fill="#FFFFFF" d="M292.875,64.977h-42.791c-11.3,0-20.459-8.953-20.459-20v-5.25c0-11.046,9.159-20,20.459-20h42.791v11.375
		h-38.25c-6.213,0-11.25,5.037-11.25,11.25l0,0c0,6.213,5.037,11.25,11.25,11.25h38.25V64.977z"/>
	<path fill="#FFFFFF" d="M77.625,53.5"/>
	<path fill="#FFFFFF" d="M77.625,37.079h-13.5v27.898h43.791c11.3,0,20.459-8.953,20.459-20v-5.25c0-11.046-9.159-20-20.459-20
		H64.125v11.375h39.25c6.213,0,11.25,5.037,11.25,11.25l0,0c0,6.213-5.037,11.25-11.25,11.25h-25.75V37.079z"/>
	<rect x="187.56" y="19.727" fill="#FFFFFF" width="35.815" height="12.101"/>
	<rect x="132.312" y="19.727" fill="#FFFFFF" width="14.519" height="12.101"/>
	<rect x="150.5" y="19.727" fill="#FFFFFF" width="32.875" height="12.101"/>
	<path fill="#FFFFFF" d="M187.56,31.828"/>
	<path fill="#FFFFFF" d="M158.875,48.403"/>
	<path fill="#FFFFFF" d="M174.125,48.403"/>
	<path fill="#FFFFFF" d="M202.581,48.403"/>
	<path fill="#FFFFFF" d="M174.375,36.301"/>
	<rect x="132.312" y="36.301" fill="#FFFFFF" width="14.519" height="28.676"/>
	<rect x="159.875" y="36.301" fill="#FFFFFF" width="14.5" height="28.676"/>
	<polygon fill="#FFFFFF" points="187.56,36.301 223.375,36.301 223.375,48.403 202.581,48.403 202.581,52.875 223.375,52.875 
		223.375,64.977 187.56,64.977 	"/>
	<path fill="#FFFFFF" d="M174.625,52.875"/>
	<g>
		<path fill="#FFFFFF" d="M208.369,80.555v-9.343h4.815l2.892,6.373l2.858-6.373h4.826v9.343h-2.989v-7.354l-3.163,7.354h-3.098
			l-3.152-7.354v7.354H208.369z"/>
		<path fill="#FFFFFF" d="M241.326,80.555h-3.5l-1.391-2.122h-6.37l-1.315,2.122h-3.413l6.207-9.343h3.402L241.326,80.555z
			 M235.402,76.859l-2.195-3.467l-2.152,3.467H235.402z"/>
		<path fill="#FFFFFF" d="M243.045,80.555v-9.343h6.771c1.703,0,2.94,0.084,3.712,0.252c0.772,0.167,1.39,0.466,1.854,0.895
			c0.464,0.43,0.696,0.92,0.696,1.473c0,0.701-0.352,1.28-1.055,1.736c-0.703,0.457-1.754,0.745-3.152,0.864
			c0.695,0.237,1.27,0.499,1.723,0.783c0.453,0.285,1.063,0.791,1.832,1.518l1.945,1.822h-3.848l-2.326-2.033
			c-0.826-0.727-1.392-1.185-1.696-1.373c-0.304-0.189-0.627-0.319-0.967-0.389c-0.341-0.07-0.881-0.105-1.62-0.105h-0.652v3.9
			H243.045z M246.262,75.164h2.381c1.544,0,2.507-0.038,2.892-0.115c0.384-0.076,0.685-0.208,0.902-0.395
			c0.217-0.188,0.326-0.421,0.326-0.701c0-0.314-0.144-0.568-0.43-0.762s-0.69-0.315-1.212-0.366
			c-0.261-0.021-1.044-0.032-2.348-0.032h-2.512V75.164z"/>
		<path fill="#FFFFFF" d="M259.012,80.555v-9.343h3.218v9.343H259.012z"/>
		<path fill="#FFFFFF" d="M265.328,80.555v-9.343h3.131l6.521,6.239v-6.239h2.989v9.343h-3.229l-6.424-6.093v6.093H265.328z"/>
		<path fill="#FFFFFF" d="M281.371,80.555v-9.343h11.816v1.58h-8.599v2.071h8.001v1.574h-8.001v2.543h8.902v1.574H281.371z"/>
	</g>
	<g>
		<path fill="#FFFFFF" d="M301.837,19.372c0.77,0,1.508,0.192,2.215,0.577s1.263,0.937,1.667,1.655s0.606,1.471,0.606,2.256
			c0,0.781-0.198,1.526-0.595,2.235s-0.949,1.262-1.658,1.658s-1.454,0.595-2.235,0.595s-1.526-0.198-2.235-0.595
			s-1.262-0.949-1.658-1.658s-0.595-1.454-0.595-2.235c0-0.785,0.202-1.537,0.606-2.256s0.96-1.271,1.667-1.655
			S301.067,19.372,301.837,19.372z M301.843,20.25c-0.617,0-1.209,0.154-1.775,0.463s-1.013,0.752-1.339,1.33
			s-0.489,1.184-0.489,1.816c0,0.629,0.159,1.229,0.478,1.799s0.763,1.016,1.333,1.336s1.168,0.48,1.793,0.48
			c0.629,0,1.228-0.16,1.796-0.48s1.013-0.766,1.333-1.336s0.48-1.17,0.48-1.799c0-0.633-0.163-1.238-0.489-1.816
			s-0.773-1.021-1.342-1.33S302.46,20.25,301.843,20.25z M299.81,26.262v-4.764h0.967c0.906,0,1.414,0.004,1.523,0.012
			c0.32,0.027,0.569,0.091,0.747,0.19s0.326,0.252,0.445,0.457s0.179,0.433,0.179,0.683c0,0.344-0.112,0.638-0.337,0.882
			s-0.54,0.396-0.946,0.454c0.145,0.055,0.256,0.114,0.334,0.179s0.186,0.187,0.322,0.366c0.035,0.047,0.152,0.24,0.352,0.58
			l0.562,0.961h-1.195l-0.398-0.773c-0.27-0.52-0.492-0.847-0.668-0.981s-0.398-0.202-0.668-0.202h-0.252v1.957H299.81z
			 M300.776,23.555h0.393c0.559,0,0.905-0.021,1.04-0.064s0.241-0.118,0.319-0.226s0.117-0.229,0.117-0.366
			c0-0.133-0.038-0.251-0.114-0.354s-0.185-0.178-0.325-0.223s-0.486-0.067-1.037-0.067h-0.393V23.555z"/>
	</g>
	<rect x="4.978" y="19.727" fill="#FDEE27" width="50.216" height="9.493"/>
	<rect x="4.978" y="41.342" fill="#ED2224" width="50.216" height="23.635"/>
</g>
</svg>
