<?xml version="1.0" encoding="utf-8"?>
<!-- Generator: Adobe Illustrator 15.0.0, SVG Export Plug-In . SVG Version: 6.00 Build 0)  -->
<!DOCTYPE svg PUBLIC "-//W3C//DTD SVG 1.1//EN" "http://www.w3.org/Graphics/SVG/1.1/DTD/svg11.dtd">
<svg version="1.1" id="Layer_3" xmlns="http://www.w3.org/2000/svg" xmlns:xlink="http://www.w3.org/1999/xlink" x="0px" y="0px"
	 width="242px" height="61px" viewBox="34.02 19.037 242 61" enable-background="new 34.02 19.037 242 61" xml:space="preserve">
<g>
	<rect x="42.646" y="33.751" fill="#F58020" width="37.662" height="14.129"/>
	<path d="M258.569,61.223h-32.093c-8.476,0-15.345-6.715-15.345-15v-3.938c0-8.284,6.869-15,15.345-15h32.093v8.531h-28.688
		c-4.659,0-8.438,3.778-8.438,8.438l0,0c0,4.66,3.778,8.438,8.438,8.438h28.688V61.223z"/>
	<path d="M97.132,52.615"/>
	<path d="M97.132,40.3H87.007v20.923h32.843c8.475,0,15.344-6.715,15.344-15v-3.938c0-8.284-6.869-15-15.344-15H87.007v8.531h29.438
		c4.66,0,8.438,3.778,8.438,8.438l0,0c0,4.66-3.778,8.438-8.438,8.438H97.132V40.3z"/>
	<rect x="179.584" y="27.286" width="26.86" height="9.076"/>
	<rect x="138.147" y="27.286" width="10.889" height="9.076"/>
	<rect x="151.788" y="27.286" width="24.656" height="9.076"/>
	<path d="M179.584,36.362"/>
	<path d="M158.069,48.792"/>
	<path d="M169.507,48.792"/>
	<path d="M190.849,48.792"/>
	<path d="M169.694,39.716"/>
	<rect x="138.147" y="39.716" width="10.889" height="21.507"/>
	<rect x="158.819" y="39.716" width="10.875" height="21.507"/>
	<polygon points="179.584,39.716 206.444,39.716 206.444,48.792 190.849,48.792 190.849,52.146 206.444,52.146 206.444,61.223 
		179.584,61.223 	"/>
	<path d="M169.882,52.146"/>
	<g>
		<path d="M195.189,72.907V65.9h3.611l2.17,4.779l2.143-4.779h3.619v7.007h-2.24v-5.516l-2.373,5.516h-2.324l-2.363-5.516v5.516
			H195.189z"/>
		<path d="M219.908,72.907h-2.625l-1.043-1.591h-4.779l-0.985,1.591h-2.56l4.655-7.007h2.551L219.908,72.907z M215.465,70.134
			l-1.646-2.6l-1.614,2.6H215.465z"/>
		<path d="M221.197,72.907V65.9h5.078c1.277,0,2.205,0.062,2.783,0.189c0.579,0.124,1.043,0.349,1.391,0.67
			c0.348,0.322,0.522,0.69,0.522,1.105c0,0.525-0.264,0.96-0.791,1.302c-0.527,0.343-1.315,0.559-2.364,0.648
			c0.521,0.178,0.952,0.374,1.292,0.587s0.798,0.593,1.374,1.139l1.459,1.366h-2.886l-1.745-1.524
			c-0.619-0.546-1.044-0.889-1.271-1.03c-0.229-0.142-0.471-0.239-0.726-0.292c-0.255-0.052-0.661-0.078-1.215-0.078h-0.489v2.925
			H221.197z M223.609,68.863h1.785c1.159,0,1.881-0.027,2.17-0.086c0.288-0.057,0.514-0.155,0.677-0.296s0.245-0.315,0.245-0.526
			c0-0.234-0.109-0.426-0.323-0.57c-0.215-0.146-0.519-0.236-0.909-0.274c-0.196-0.017-0.783-0.024-1.761-0.024h-1.885
			L223.609,68.863L223.609,68.863z"/>
		<path d="M233.172,72.907V65.9h2.414v7.007H233.172z"/>
		<path d="M237.909,72.907V65.9h2.349l4.891,4.679V65.9h2.241v7.007h-2.421l-4.818-4.569v4.569H237.909z"/>
		<path d="M249.941,72.907V65.9h8.862v1.186h-6.45v1.553h6.001v1.18h-6.001v1.908h6.678v1.18L249.941,72.907L249.941,72.907z"/>
	</g>
	<g>
		<path d="M265.291,27.02c0.578,0,1.131,0.144,1.661,0.433c0.53,0.289,0.946,0.702,1.25,1.241c0.304,0.538,0.455,1.103,0.455,1.691
			c0,0.586-0.149,1.145-0.446,1.677c-0.298,0.532-0.712,0.946-1.244,1.243c-0.531,0.297-1.09,0.446-1.676,0.446
			s-1.145-0.148-1.677-0.446s-0.946-0.711-1.243-1.243c-0.297-0.532-0.445-1.091-0.445-1.677c0-0.588,0.15-1.152,0.453-1.691
			c0.304-0.54,0.721-0.954,1.251-1.241C264.16,27.165,264.713,27.02,265.291,27.02z M265.295,27.678
			c-0.462,0-0.906,0.115-1.33,0.347c-0.426,0.232-0.761,0.564-1.006,0.998c-0.244,0.434-0.365,0.888-0.365,1.362
			c0,0.472,0.118,0.922,0.357,1.35c0.24,0.427,0.572,0.762,1,1.002c0.428,0.24,0.876,0.36,1.345,0.36c0.472,0,0.921-0.12,1.348-0.36
			c0.426-0.24,0.759-0.575,0.999-1.002c0.24-0.428,0.36-0.878,0.36-1.35c0-0.475-0.122-0.928-0.367-1.362
			c-0.243-0.434-0.579-0.766-1.006-0.998S265.758,27.678,265.295,27.678z M263.771,32.187v-3.573h0.725
			c0.68,0,1.061,0.003,1.142,0.009c0.24,0.021,0.427,0.068,0.561,0.143s0.245,0.189,0.334,0.343s0.134,0.325,0.134,0.512
			c0,0.258-0.084,0.479-0.252,0.662c-0.169,0.183-0.405,0.297-0.709,0.34c0.107,0.041,0.191,0.085,0.25,0.134
			c0.058,0.049,0.139,0.14,0.241,0.275c0.026,0.035,0.113,0.18,0.265,0.435l0.421,0.721h-0.896l-0.299-0.58
			c-0.203-0.39-0.369-0.635-0.502-0.736c-0.131-0.101-0.299-0.151-0.5-0.151h-0.189v1.468L263.771,32.187L263.771,32.187z
			 M264.494,30.157h0.296c0.419,0,0.679-0.016,0.78-0.048c0.101-0.032,0.181-0.088,0.238-0.169c0.059-0.081,0.088-0.172,0.088-0.275
			c0-0.1-0.027-0.188-0.085-0.265c-0.058-0.078-0.14-0.133-0.244-0.167c-0.104-0.034-0.364-0.05-0.777-0.05h-0.296V30.157z"/>
	</g>
	<rect x="42.646" y="27.286" fill="#FDEE27" width="37.662" height="7.12"/>
	<rect x="42.646" y="43.497" fill="#ED2224" width="37.662" height="17.726"/>
</g>
</svg>
