<?xml version="1.0" encoding="utf-8"?>
<!-- Generator: Adobe Illustrator 15.0.0, SVG Export Plug-In . SVG Version: 6.00 Build 0)  -->
<!DOCTYPE svg PUBLIC "-//W3C//DTD SVG 1.1//EN" "http://www.w3.org/Graphics/SVG/1.1/DTD/svg11.dtd">
<svg version="1.1" id="Logo__x2014__FIXED" xmlns="http://www.w3.org/2000/svg" xmlns:xlink="http://www.w3.org/1999/xlink" x="0px"
	 y="0px" width="30px" height="30px" viewBox="10 10 30 30" enable-background="new 10 10 30 30" xml:space="preserve">
<path fill="#FF8000" d="M40,25c0,8.283-6.717,15-15,15c-8.285,0-15-6.717-15-15c0-8.285,6.715-15,15-15C33.283,10,40,16.715,40,25z
	 M25,11.5c-7.456,0-13.5,6.044-13.5,13.5c0,7.455,6.044,13.5,13.5,13.5c7.455,0,13.5-6.045,13.5-13.5
	C38.5,17.544,32.455,11.5,25,11.5z"/>
<g>
	<path fill="#FF8000" d="M21.583,18.719v3.069h-2.25v3.755h2.25v11.156h4.62V25.543h3.102c0,0,0.289-1.8,0.431-3.77h-3.514v-2.566
		c0-0.384,0.503-0.899,1.001-0.899h2.519v-3.909h-3.425C21.469,14.399,21.583,18.157,21.583,18.719L21.583,18.719z"/>
</g>
</svg>
