<?xml version="1.0" encoding="utf-8"?>
<!-- Generator: Adobe Illustrator 15.0.0, SVG Export Plug-In . SVG Version: 6.00 Build 0)  -->
<!DOCTYPE svg PUBLIC "-//W3C//DTD SVG 1.1//EN" "http://www.w3.org/Graphics/SVG/1.1/DTD/svg11.dtd">
<svg version="1.1" id="Logo__x2014__FIXED" xmlns="http://www.w3.org/2000/svg" xmlns:xlink="http://www.w3.org/1999/xlink" x="0px"
	 y="0px" width="30px" height="30px" viewBox="10 10 30 30" enable-background="new 10 10 30 30" xml:space="preserve">
<path fill="#FF8000" d="M40.09,24.569c0,8.285-6.716,15-15,15s-15-6.715-15-15c0-8.284,6.716-15,15-15S40.09,16.285,40.09,24.569z
	 M25.09,11.069c-7.456,0-13.5,6.044-13.5,13.5s6.044,13.5,13.5,13.5c7.455,0,13.5-6.044,13.5-13.5S32.545,11.069,25.09,11.069z"/>
<g id="g10" transform="matrix(1.3333333,0,0,-1.3333333,0,671.78667)">
	<g id="g12" transform="scale(0.1)">
		<path id="path14" fill="#FF8000" d="M188.178,4925.622c-19.42,0-21.852-0.084-29.476-0.428c-7.614-0.348-12.806-1.56-17.355-3.325
			c-4.702-1.828-8.69-4.27-12.667-8.244c-3.97-3.977-6.42-7.965-8.243-12.664c-1.765-4.552-2.974-9.745-3.325-17.358
			c-0.348-7.625-0.428-10.056-0.428-29.469c0-19.42,0.081-21.852,0.428-29.484c0.352-7.603,1.56-12.803,3.325-17.358
			c1.824-4.688,4.274-8.687,8.243-12.656c3.977-3.97,7.965-6.416,12.667-8.247c4.548-1.765,9.741-2.974,17.355-3.325
			c7.625-0.352,10.056-0.425,29.476-0.425s21.852,0.073,29.476,0.425c7.61,0.352,12.803,1.56,17.351,3.325
			c4.702,1.831,8.687,4.277,12.664,8.247s6.423,7.969,8.24,12.656c1.772,4.556,2.981,9.756,3.325,17.358
			c0.352,7.632,0.439,10.063,0.439,29.484c0,19.413-0.088,21.844-0.439,29.469c-0.344,7.614-1.553,12.807-3.325,17.358
			c-1.816,4.699-4.263,8.687-8.24,12.664c-3.977,3.974-7.961,6.416-12.664,8.244c-4.548,1.765-9.741,2.977-17.351,3.325
			C210.029,4925.538,207.598,4925.622,188.178,4925.622L188.178,4925.622z M188.178,4912.743c19.083,0,21.346-0.073,28.883-0.421
			c6.973-0.318,10.759-1.476,13.279-2.461c3.333-1.296,5.72-2.845,8.225-5.347c2.498-2.501,4.05-4.881,5.339-8.225
			c0.981-2.516,2.146-6.302,2.468-13.271c0.337-7.537,0.41-9.8,0.41-28.883c0-19.098-0.073-21.369-0.41-28.898
			c-0.322-6.973-1.487-10.752-2.468-13.271c-1.289-3.34-2.842-5.72-5.339-8.218c-2.505-2.498-4.893-4.05-8.225-5.347
			c-2.52-0.981-6.306-2.139-13.279-2.461c-7.537-0.352-9.8-0.425-28.883-0.425c-19.094,0-21.357,0.073-28.894,0.425
			c-6.969,0.322-10.752,1.479-13.271,2.461c-3.34,1.296-5.72,2.849-8.221,5.347c-2.505,2.498-4.05,4.885-5.347,8.218
			c-0.981,2.52-2.146,6.299-2.461,13.271c-0.344,7.544-0.417,9.8-0.417,28.898c0,19.083,0.073,21.346,0.417,28.883
			c0.315,6.969,1.48,10.756,2.461,13.271c1.296,3.34,2.842,5.724,5.347,8.225c2.501,2.501,4.882,4.05,8.221,5.347
			c2.52,0.985,6.302,2.143,13.271,2.461C166.824,4912.669,169.083,4912.743,188.178,4912.743"/>
		<path id="path16" fill="#FF8000" d="M188.178,4830.305c-13.165,0-23.837,10.664-23.837,23.83
			c0,13.162,10.671,23.829,23.837,23.829c13.158,0,23.829-10.667,23.829-23.829C212.007,4840.969,201.335,4830.305,188.178,4830.305
			z M188.178,4890.843c-20.281,0-36.713-16.436-36.713-36.709c0-20.27,16.432-36.72,36.713-36.72c20.27,0,36.705,16.45,36.705,36.72
			C224.883,4874.408,208.447,4890.843,188.178,4890.843"/>
		<path id="path18" fill="#FF8000" d="M234.917,4892.293c0-4.739-3.838-8.581-8.584-8.581c-4.731,0-8.577,3.842-8.577,8.581
			s3.845,8.577,8.577,8.577C231.079,4900.87,234.917,4897.032,234.917,4892.293"/>
	</g>
</g>
</svg>
