<?xml version="1.0" encoding="utf-8"?>
<!-- Generator: Adobe Illustrator 15.0.0, SVG Export Plug-In  -->
<!DOCTYPE svg PUBLIC "-//W3C//DTD SVG 1.1//EN" "http://www.w3.org/Graphics/SVG/1.1/DTD/svg11.dtd" [
	<!ENTITY ns_flows "http://ns.adobe.com/Flows/1.0/">
]>
<svg version="1.1"
	 xmlns="http://www.w3.org/2000/svg" xmlns:xlink="http://www.w3.org/1999/xlink" xmlns:a="http://ns.adobe.com/AdobeSVGViewerExtensions/3.0/"
	 x="0px" y="0px" width="104px" height="90px" viewBox="-1.368 -1.862 104 90"
	 overflow="visible" enable-background="new -1.368 -1.862 104 90" xml:space="preserve">
<defs>
</defs>
<path fill-rule="evenodd" clip-rule="evenodd" fill="#F7941E" d="M4.131,25.039c-3.108,6.785-3.8,15.085-3.8,26.157
	c0,4.762,0,9.766,0,14.979c0,4.747-0.876,10.831,0.223,14.755c1.888,6.736,12.463,4.919,21.238,4.919
	c5.092,0,13.254,1.124,17.214-0.446c5.847-2.321,4.248-12.232,4.248-21.463c0-6.527,0.736-13.785-0.447-16.768
	c-3.126-7.879-18.303-2.586-28.168-4.47c1.601-17.402,11.105-26.9,28.616-28.393c0-4.769,0-9.539,0-14.308
	C24.076,0.564,10.656,10.794,4.131,25.039z M57.562,40.241c-0.586,10.594,0,20.845,0,31.298c0,3.264-0.551,7.544,0.447,10.062
	c2.369,5.971,11.607,4.247,21.014,4.247c6.062,0,13.396,1.068,17.215-0.446c6.01-2.386,4.248-11.639,4.248-20.569
	c0-6.548,0.973-13.138-0.223-16.989c-1.873-6.033-8.799-4.919-16.096-4.919c-4.043,0-7.904,0.191-12.297-0.223
	c1.601-17.403,11.104-26.901,28.615-28.393c0-4.769,0-9.539,0-14.308C76.49,0.88,58.826,17.431,57.562,40.241z"/>
<path fill-rule="evenodd" clip-rule="evenodd" fill="#F7941E" d="M43.254,0c0,4.77,0,9.539,0,14.308
	c-17.51,1.493-27.015,10.991-28.616,28.393c9.865,1.884,25.042-3.409,28.168,4.47c1.184,2.982,0.447,10.24,0.447,16.768
	c0,9.23,1.599,19.142-4.248,21.463c-3.96,1.57-12.122,0.446-17.214,0.446c-8.775,0-19.351,1.817-21.238-4.919
	c-1.1-3.924-0.223-10.008-0.223-14.755c0-5.213,0-10.217,0-14.979c0-11.072,0.692-19.372,3.8-26.157
	C10.656,10.794,24.076,0.564,43.254,0z"/>
<path fill-rule="evenodd" clip-rule="evenodd" fill="#F7941E" d="M100.486,0c0,4.77,0,9.539,0,14.308
	C82.975,15.8,73.471,25.298,71.871,42.701c4.393,0.415,8.254,0.223,12.297,0.223c7.297,0,14.223-1.114,16.096,4.919
	c1.195,3.852,0.223,10.441,0.223,16.989c0,8.931,1.762,18.184-4.248,20.569c-3.818,1.515-11.152,0.446-17.215,0.446
	c-9.406,0-18.645,1.724-21.014-4.247c-0.998-2.518-0.447-6.798-0.447-10.062c0-10.453-0.586-20.704,0-31.298
	C58.826,17.431,76.49,0.88,100.486,0z"/>
</svg>
