<?xml version="1.0" encoding="utf-8"?>
<!-- Generator: Adobe Illustrator 15.0.0, SVG Export Plug-In . SVG Version: 6.00 Build 0)  -->
<!DOCTYPE svg PUBLIC "-//W3C//DTD SVG 1.1//EN" "http://www.w3.org/Graphics/SVG/1.1/DTD/svg11.dtd">
<svg version="1.1" id="Logo__x2014__FIXED" xmlns="http://www.w3.org/2000/svg" xmlns:xlink="http://www.w3.org/1999/xlink" x="0px"
	 y="0px" width="30px" height="30px" viewBox="10 10 30 30" enable-background="new 10 10 30 30" xml:space="preserve">
<path fill="#FF8000" d="M40,25c0,8.285-6.716,15-15,15s-15-6.715-15-15c0-8.284,6.716-15,15-15S40,16.716,40,25z M25,11.5
	c-7.456,0-13.5,6.044-13.5,13.5S17.544,38.5,25,38.5c7.455,0,13.5-6.044,13.5-13.5S32.455,11.5,25,11.5z"/>
<g id="g10_1_" transform="matrix(1.3333333,0,0,-1.3333333,0,35.468228)">
	<g id="g12_1_" transform="scale(0.1)">
		<g id="g14">
			<g>
				<g id="g16">
					<path id="path22" fill="#FF8000" d="M165.114,27.381c0-10.085-8.163-18.259-18.256-18.259c-10.06,0-18.237,8.174-18.237,18.259
						c0,10.071,8.178,18.23,18.237,18.23C156.951,45.611,165.114,37.452,165.114,27.381z"/>
					<path id="path24" fill="#FF8000" d="M156.097,63.834c15.073,0,27.345-12.275,27.345-27.371h18.252
						c0,25.137-20.46,45.626-45.597,45.626V63.834z"/>
					<path id="path26" fill="#FF8000" d="M155.966,100.323c35.204,0,63.864-28.66,63.864-63.86h18.23
						c0,45.275-36.833,82.115-82.094,82.115V100.323z"/>
					<path id="path28" fill="#FF8000" d="M155.966,136.82c55.338,0,100.323-45.022,100.323-100.356h18.267
						c0,65.394-53.196,118.59-118.59,118.59V136.82L155.966,136.82z"/>
				</g>
			</g>
		</g>
	</g>
</g>
</svg>
