<?xml version="1.0" encoding="utf-8"?>
<!-- Generator: Adobe Illustrator 15.0.0, SVG Export Plug-In . SVG Version: 6.00 Build 0)  -->
<!DOCTYPE svg PUBLIC "-//W3C//DTD SVG 1.1//EN" "http://www.w3.org/Graphics/SVG/1.1/DTD/svg11.dtd">
<svg version="1.1" id="Layer_1" xmlns="http://www.w3.org/2000/svg" xmlns:xlink="http://www.w3.org/1999/xlink" x="0px" y="0px"
	 width="20px" height="20px" viewBox="0 0 20 20" enable-background="new 0 0 20 20" xml:space="preserve">
<g id="share">
	<path fill="#FF8000" d="M15,14.161c-0.76,0-1.439,0.3-1.961,0.771L5.91,10.782c0.049-0.229,0.09-0.46,0.09-0.7
		c0-0.24-0.041-0.472-0.09-0.7l7.049-4.11c0.541,0.5,1.25,0.81,2.041,0.81c1.66,0,3-1.34,3-3s-1.34-3-3-3s-3,1.34-3,3
		c0,0.24,0.039,0.47,0.09,0.7l-7.05,4.11C4.5,7.392,3.79,7.081,3,7.081c-1.66,0-3,1.34-3,3s1.34,3,3,3c0.79,0,1.5-0.312,2.04-0.812
		l7.121,4.16c-0.052,0.211-0.08,0.43-0.08,0.649c0,1.608,1.312,2.92,2.92,2.92s2.92-1.312,2.92-2.92S16.609,14.161,15,14.161z"/>
</g>
</svg>
