<?xml version="1.0" encoding="utf-8"?>
<!-- Generator: Adobe Illustrator 15.0.0, SVG Export Plug-In . SVG Version: 6.00 Build 0)  -->
<!DOCTYPE svg PUBLIC "-//W3C//DTD SVG 1.1//EN" "http://www.w3.org/Graphics/SVG/1.1/DTD/svg11.dtd">
<svg version="1.1" id="Capa_1" xmlns="http://www.w3.org/2000/svg" xmlns:xlink="http://www.w3.org/1999/xlink" x="0px" y="0px"
	 width="371px" height="458px" viewBox="365.5 430.5 371 458" enable-background="new 365.5 430.5 371 458" xml:space="preserve">
<g>
	<path fill="#FFFFFF" d="M663.705,482.235c-7.146-4.145-16.276-1.692-20.421,5.482l-14.936,25.844l51.752,29.87l14.936-25.844
		c4.112-7.174,1.663-16.276-5.483-20.42L663.705,482.235z"/>
	<path fill="#FFFFFF" d="M437.589,482.235l-25.845,14.937c-7.146,4.145-9.596,13.243-5.485,20.42l14.936,25.845l51.751-29.87
		l-14.936-25.845C453.865,480.543,444.735,478.094,437.589,482.235z"/>
	<path fill="#FFFFFF" d="M551.531,505.063c9.446,0,18.674,0.925,27.793,2.228v-24.173l19.108-0.146v-31.268
		c0-7.681-6.216-13.896-13.896-13.896h-65.863c-7.682,0-13.896,6.216-13.896,13.896v31.268l18.962,0.146v24.173
		C532.857,505.988,542.085,505.063,551.531,505.063z"/>
	<path fill="#FFFFFF" d="M551.531,585.676c-64.156,0-116.168,52.008-116.168,116.168s52.008,116.168,116.168,116.168
		S667.699,766,667.699,701.844S615.688,585.676,551.531,585.676z M568.235,723.13c-6.723,6.128-20.153,2.346-30-8.449
		c-9.846-10.798-12.382-24.521-5.659-30.648c6.722-6.129,66.853-39.279,85.234-41.923C613.485,660.169,574.957,717,568.235,723.13z"
		/>
	<path fill="#FFFFFF" d="M551.531,521.188c-99.774,0-180.656,80.882-180.656,180.656S451.757,882.5,551.531,882.5
		s180.656-80.882,180.656-180.656S651.306,521.188,551.531,521.188z M551.531,848.426c-80.955,0-146.582-65.627-146.582-146.582
		s65.628-146.585,146.582-146.585c80.955,0,146.586,65.631,146.586,146.585C698.117,782.799,632.486,848.426,551.531,848.426z"/>
</g>
</svg>
