<?xml version="1.0" encoding="utf-8"?>
<!-- Generator: Adobe Illustrator 15.0.0, SVG Export Plug-In . SVG Version: 6.00 Build 0)  -->
<!DOCTYPE svg PUBLIC "-//W3C//DTD SVG 1.1//EN" "http://www.w3.org/Graphics/SVG/1.1/DTD/svg11.dtd">
<svg version="1.1" id="Logo__x2014__FIXED" xmlns="http://www.w3.org/2000/svg" xmlns:xlink="http://www.w3.org/1999/xlink" x="0px"
	 y="0px" width="30px" height="30px" viewBox="10 10 30 30" enable-background="new 10 10 30 30" xml:space="preserve">
<g>
	<path fill="#FF8000" d="M22.157,33.143c7.004,0,10.835-5.804,10.835-10.836c0-0.165-0.004-0.329-0.012-0.492
		c0.744-0.538,1.391-1.208,1.9-1.972c-0.682,0.303-1.416,0.508-2.187,0.599c0.785-0.471,1.389-1.216,1.673-2.106
		c-0.735,0.437-1.55,0.754-2.417,0.925c-0.694-0.74-1.685-1.203-2.78-1.203c-2.104,0-3.809,1.705-3.809,3.807
		c0,0.299,0.034,0.59,0.1,0.869c-3.166-0.16-5.972-1.675-7.85-3.979c-0.327,0.563-0.516,1.218-0.516,1.914
		c0,1.322,0.672,2.488,1.695,3.17c-0.625-0.02-1.211-0.191-1.725-0.477c-0.001,0.016-0.001,0.032-0.001,0.049
		c0,1.845,1.313,3.385,3.056,3.734c-0.32,0.088-0.657,0.134-1.004,0.134c-0.246,0-0.484-0.023-0.716-0.068
		c0.485,1.514,1.891,2.615,3.558,2.645c-1.304,1.021-2.946,1.632-4.73,1.632c-0.307,0-0.61-0.018-0.908-0.054
		C18.004,32.512,20.005,33.143,22.157,33.143"/>
</g>
<path fill="#FF8000" d="M40,25c0,8.283-6.717,15-15,15c-8.285,0-15-6.717-15-15c0-8.285,6.715-15,15-15C33.283,10,40,16.715,40,25z
	 M25,11.5c-7.456,0-13.5,6.044-13.5,13.5c0,7.455,6.044,13.5,13.5,13.5c7.455,0,13.5-6.045,13.5-13.5
	C38.5,17.544,32.455,11.5,25,11.5z"/>
</svg>
